<?xml version="1.0" encoding="UTF-8" standalone="no"?>
<svg width="14px" height="17px" viewBox="0 0 14 17" version="1.1" xmlns="http://www.w3.org/2000/svg" xmlns:xlink="http://www.w3.org/1999/xlink">
    <!-- Generator: Sketch 41.2 (35397) - http://www.bohemiancoding.com/sketch -->
    <title>Pin</title>
    <desc>Created with Sketch.</desc>
    <defs></defs>
    <g id="Page-1" stroke="none" stroke-width="1" fill="none" fill-rule="evenodd">
        <g id="Store-location" transform="translate(-104.000000, -458.000000)" fill="#959595">
            <g id="Group-8" transform="translate(13.000000, 175.000000)">
                <path d="M98.047202,287.536173 C96.6616668,287.526891 95.6291489,288.519758 95.6191607,289.87089 C95.6091725,291.222021 96.6447171,292.268159 97.9955459,292.271691 C99.3640305,292.275121 100.384038,291.264194 100.393421,289.895305 C100.402703,288.55396 99.3993423,287.545253 98.047202,287.536173 M105,290.797472 C104.900219,292.876834 103.593883,294.991307 101.035491,296.309346 C100.770652,296.445851 100.563422,296.618375 100.384341,296.844976 C99.7172497,297.688626 99.0395653,298.524104 98.3825635,299.375623 C98.1445618,299.683946 97.9677,299.707958 97.7293956,299.380264 C97.4430671,298.986487 97.1129519,298.624692 96.8227896,298.233538 C96.1001078,297.259234 95.2699772,296.46159 94.1900406,295.824161 C91.7321356,294.373451 90.5432368,291.316455 91.1613956,288.530251 C91.7933764,285.68099 94.1223428,283.49428 96.9701913,283.075986 C101.213059,282.452783 104.997175,285.719531 105,290.797472" id="Pin"></path>
            </g>
        </g>
    </g>
</svg>